# xmcd
#
# Track frame offsets:
#	150
#	15343
#	32433
#	47594
#	62643
#	78770
#	91504
#	105871
#	120774
#	134958
#	155968
#	172531
#	193948
#	210410
#	224585
#	240729
#	258424
#	273537
#	288963
#	305575
#
# Disc length: 4331 seconds
#
# Revision: 1
# Processed by: cddbd v1.4PL0 Copyright (c) Steve Scherf et al.
# Submitted via: audiograbber 1.80
#
DISCID=0810e914
DTITLE=Various Artist - Cadoul Visat
DYEAR=1900
DGENRE=
TTITLE0=All Stars - ! ptr toti
TTITLE1=Mioara Velicu&Hora - La colindat
TTITLE2=Di Steffano&Gina(K1) - Ding dong
TTITLE3=Benone Sinulescu&Ro - Mania
TTITLE4=Nicolae Furdui Iancu&eXtra - Deschide usa crestine
TTITLE5=Etno - Sculati,sculati boieri mari 
TTITLE6=K1 - Vine hulpe
TTITLE7=Elene&Rico  - Sarbatoarea de Craciun
TTITLE8=Ion(Ro - Mania)&Simona(Etno)
TTITLE9=Ducu Bertzi&Double D  - Flori dalbe
TTITLE10=All Stars - Sculati,sculati boieri mari 
TTITLE11=Sanda Ladosi&Di Steffano - Ave Maria
TTITLE12=Tiger1&Baby Kat - Nu sint un inger
TTITLE13=eXtra - E vremea colindelor
TTITLE14=Ro - Mania&Benone Sinulescu
TTITLE15=Hora&Mioare Velicu - Flori de mar
TTITLE16=Lucretia Ciobanu&Zada - D'alei Ana
TTITLE17=eXtra&Double D - Si-a mai trecut un an
TTITLE18=Benone Sinulescu&Ro - Mania
TTITLE19=K1&Di Steffano  - Cadoul visat
EXTD=
EXTT0=
EXTT1=
EXTT2=
EXTT3=
EXTT4=
EXTT5=
EXTT6=
EXTT7=
EXTT8=
EXTT9=
EXTT10=
EXTT11=
EXTT12=
EXTT13=
EXTT14=
EXTT15=
EXTT16=
EXTT17=
EXTT18=
EXTT19=
PLAYORDER=
